<mxfile host="app.diagrams.net" modified="2024-07-21T22:58:03.254Z" agent="Mozilla/5.0 (X11; Linux x86_64) AppleWebKit/537.36 (KHTML, like Gecko) Chrome/126.0.0.0 Safari/537.36" etag="FeZn4FG4ut9NDBWA1KBw" version="24.7.1" type="device">
  <diagram name="Page-1" id="pOjreaq1n9MvSs1b-Imu">
    <mxGraphModel dx="574" dy="1514" grid="1" gridSize="10" guides="1" tooltips="1" connect="1" arrows="1" fold="1" page="1" pageScale="1" pageWidth="827" pageHeight="1169" math="0" shadow="0">
      <root>
        <mxCell id="0" />
        <mxCell id="1" parent="0" />
        <mxCell id="yZPRah-BHQVT8apipLpk-1" value="00" style="text;html=1;align=center;verticalAlign=middle;whiteSpace=wrap;rounded=0;" vertex="1" parent="1">
          <mxGeometry width="80" height="40" as="geometry" />
        </mxCell>
        <mxCell id="yZPRah-BHQVT8apipLpk-2" value="11" style="text;html=1;align=center;verticalAlign=middle;whiteSpace=wrap;rounded=0;" vertex="1" parent="1">
          <mxGeometry y="120" width="80" height="40" as="geometry" />
        </mxCell>
        <mxCell id="yZPRah-BHQVT8apipLpk-4" value="01" style="text;html=1;align=center;verticalAlign=middle;whiteSpace=wrap;rounded=0;" vertex="1" parent="1">
          <mxGeometry y="40" width="80" height="40" as="geometry" />
        </mxCell>
        <mxCell id="yZPRah-BHQVT8apipLpk-5" value="10" style="text;html=1;align=center;verticalAlign=middle;whiteSpace=wrap;rounded=0;" vertex="1" parent="1">
          <mxGeometry y="80" width="80" height="40" as="geometry" />
        </mxCell>
        <mxCell id="yZPRah-BHQVT8apipLpk-10" style="edgeStyle=orthogonalEdgeStyle;rounded=0;orthogonalLoop=1;jettySize=auto;html=1;entryX=0;entryY=0.5;entryDx=0;entryDy=0;" edge="1" parent="1" source="yZPRah-BHQVT8apipLpk-7" target="yZPRah-BHQVT8apipLpk-9">
          <mxGeometry relative="1" as="geometry" />
        </mxCell>
        <mxCell id="yZPRah-BHQVT8apipLpk-7" value="" style="shape=image;html=1;verticalAlign=top;verticalLabelPosition=bottom;labelBackgroundColor=#ffffff;imageAspect=0;aspect=fixed;image=https://cdn4.iconfinder.com/data/icons/essential-app-2/16/record-round-circle-dot-128.png" vertex="1" parent="1">
          <mxGeometry x="70" y="10.5" width="19" height="19" as="geometry" />
        </mxCell>
        <mxCell id="yZPRah-BHQVT8apipLpk-9" value="" style="shape=image;html=1;verticalAlign=top;verticalLabelPosition=bottom;labelBackgroundColor=#ffffff;imageAspect=0;aspect=fixed;image=https://cdn4.iconfinder.com/data/icons/essential-app-2/16/record-round-circle-dot-128.png" vertex="1" parent="1">
          <mxGeometry x="150" y="10.5" width="19" height="19" as="geometry" />
        </mxCell>
        <mxCell id="yZPRah-BHQVT8apipLpk-11" value="" style="shape=image;html=1;verticalAlign=top;verticalLabelPosition=bottom;labelBackgroundColor=#ffffff;imageAspect=0;aspect=fixed;image=https://cdn4.iconfinder.com/data/icons/essential-app-2/16/record-round-circle-dot-128.png" vertex="1" parent="1">
          <mxGeometry x="150" y="50.5" width="19" height="19" as="geometry" />
        </mxCell>
        <mxCell id="yZPRah-BHQVT8apipLpk-14" value="" style="endArrow=classic;html=1;rounded=0;entryX=0;entryY=0.25;entryDx=0;entryDy=0;" edge="1" parent="1" target="yZPRah-BHQVT8apipLpk-11">
          <mxGeometry width="50" height="50" relative="1" as="geometry">
            <mxPoint x="84" y="20" as="sourcePoint" />
            <mxPoint x="440" y="60" as="targetPoint" />
          </mxGeometry>
        </mxCell>
        <mxCell id="yZPRah-BHQVT8apipLpk-15" value="" style="shape=image;html=1;verticalAlign=top;verticalLabelPosition=bottom;labelBackgroundColor=#ffffff;imageAspect=0;aspect=fixed;image=https://cdn4.iconfinder.com/data/icons/essential-app-2/16/record-round-circle-dot-128.png" vertex="1" parent="1">
          <mxGeometry x="230" y="10.5" width="19" height="19" as="geometry" />
        </mxCell>
        <mxCell id="yZPRah-BHQVT8apipLpk-16" value="" style="shape=image;html=1;verticalAlign=top;verticalLabelPosition=bottom;labelBackgroundColor=#ffffff;imageAspect=0;aspect=fixed;image=https://cdn4.iconfinder.com/data/icons/essential-app-2/16/record-round-circle-dot-128.png" vertex="1" parent="1">
          <mxGeometry x="230" y="50.5" width="19" height="19" as="geometry" />
        </mxCell>
        <mxCell id="yZPRah-BHQVT8apipLpk-17" value="" style="shape=image;html=1;verticalAlign=top;verticalLabelPosition=bottom;labelBackgroundColor=#ffffff;imageAspect=0;aspect=fixed;image=https://cdn4.iconfinder.com/data/icons/essential-app-2/16/record-round-circle-dot-128.png" vertex="1" parent="1">
          <mxGeometry x="230" y="90.5" width="19" height="19" as="geometry" />
        </mxCell>
        <mxCell id="yZPRah-BHQVT8apipLpk-18" value="" style="shape=image;html=1;verticalAlign=top;verticalLabelPosition=bottom;labelBackgroundColor=#ffffff;imageAspect=0;aspect=fixed;image=https://cdn4.iconfinder.com/data/icons/essential-app-2/16/record-round-circle-dot-128.png" vertex="1" parent="1">
          <mxGeometry x="230" y="130.5" width="19" height="19" as="geometry" />
        </mxCell>
        <mxCell id="yZPRah-BHQVT8apipLpk-19" value="" style="endArrow=classic;html=1;rounded=0;entryX=0;entryY=0.5;entryDx=0;entryDy=0;exitX=1;exitY=0.5;exitDx=0;exitDy=0;" edge="1" parent="1" source="yZPRah-BHQVT8apipLpk-9" target="yZPRah-BHQVT8apipLpk-15">
          <mxGeometry width="50" height="50" relative="1" as="geometry">
            <mxPoint x="94" y="30" as="sourcePoint" />
            <mxPoint x="160" y="65" as="targetPoint" />
          </mxGeometry>
        </mxCell>
        <mxCell id="yZPRah-BHQVT8apipLpk-20" value="" style="endArrow=classic;html=1;rounded=0;entryX=0;entryY=0.5;entryDx=0;entryDy=0;curved=0;" edge="1" parent="1" target="yZPRah-BHQVT8apipLpk-16">
          <mxGeometry width="50" height="50" relative="1" as="geometry">
            <mxPoint x="164" y="20" as="sourcePoint" />
            <mxPoint x="170" y="75" as="targetPoint" />
          </mxGeometry>
        </mxCell>
        <mxCell id="yZPRah-BHQVT8apipLpk-21" value="" style="endArrow=classic;html=1;rounded=0;entryX=0;entryY=0.25;entryDx=0;entryDy=0;exitX=0.884;exitY=0.426;exitDx=0;exitDy=0;exitPerimeter=0;" edge="1" parent="1" source="yZPRah-BHQVT8apipLpk-11" target="yZPRah-BHQVT8apipLpk-17">
          <mxGeometry width="50" height="50" relative="1" as="geometry">
            <mxPoint x="180" y="60" as="sourcePoint" />
            <mxPoint x="220" y="210" as="targetPoint" />
          </mxGeometry>
        </mxCell>
        <mxCell id="yZPRah-BHQVT8apipLpk-22" value="" style="endArrow=classic;html=1;rounded=0;entryX=0;entryY=0.25;entryDx=0;entryDy=0;exitX=0.884;exitY=0.595;exitDx=0;exitDy=0;exitPerimeter=0;" edge="1" parent="1" source="yZPRah-BHQVT8apipLpk-11" target="yZPRah-BHQVT8apipLpk-18">
          <mxGeometry width="50" height="50" relative="1" as="geometry">
            <mxPoint x="160" y="100" as="sourcePoint" />
            <mxPoint x="210" y="140" as="targetPoint" />
          </mxGeometry>
        </mxCell>
        <mxCell id="yZPRah-BHQVT8apipLpk-24" value="" style="shape=image;html=1;verticalAlign=top;verticalLabelPosition=bottom;labelBackgroundColor=#ffffff;imageAspect=0;aspect=fixed;image=https://cdn4.iconfinder.com/data/icons/essential-app-2/16/record-round-circle-dot-128.png" vertex="1" parent="1">
          <mxGeometry x="310" y="10.5" width="19" height="19" as="geometry" />
        </mxCell>
        <mxCell id="yZPRah-BHQVT8apipLpk-25" value="" style="shape=image;html=1;verticalAlign=top;verticalLabelPosition=bottom;labelBackgroundColor=#ffffff;imageAspect=0;aspect=fixed;image=https://cdn4.iconfinder.com/data/icons/essential-app-2/16/record-round-circle-dot-128.png" vertex="1" parent="1">
          <mxGeometry x="310" y="50.5" width="19" height="19" as="geometry" />
        </mxCell>
        <mxCell id="yZPRah-BHQVT8apipLpk-26" value="" style="shape=image;html=1;verticalAlign=top;verticalLabelPosition=bottom;labelBackgroundColor=#ffffff;imageAspect=0;aspect=fixed;image=https://cdn4.iconfinder.com/data/icons/essential-app-2/16/record-round-circle-dot-128.png" vertex="1" parent="1">
          <mxGeometry x="310" y="90.5" width="19" height="19" as="geometry" />
        </mxCell>
        <mxCell id="yZPRah-BHQVT8apipLpk-27" value="" style="shape=image;html=1;verticalAlign=top;verticalLabelPosition=bottom;labelBackgroundColor=#ffffff;imageAspect=0;aspect=fixed;image=https://cdn4.iconfinder.com/data/icons/essential-app-2/16/record-round-circle-dot-128.png" vertex="1" parent="1">
          <mxGeometry x="310" y="130.5" width="19" height="19" as="geometry" />
        </mxCell>
        <mxCell id="yZPRah-BHQVT8apipLpk-28" value="" style="shape=image;html=1;verticalAlign=top;verticalLabelPosition=bottom;labelBackgroundColor=#ffffff;imageAspect=0;aspect=fixed;image=https://cdn4.iconfinder.com/data/icons/essential-app-2/16/record-round-circle-dot-128.png" vertex="1" parent="1">
          <mxGeometry x="390" y="10.5" width="19" height="19" as="geometry" />
        </mxCell>
        <mxCell id="yZPRah-BHQVT8apipLpk-29" value="" style="shape=image;html=1;verticalAlign=top;verticalLabelPosition=bottom;labelBackgroundColor=#ffffff;imageAspect=0;aspect=fixed;image=https://cdn4.iconfinder.com/data/icons/essential-app-2/16/record-round-circle-dot-128.png" vertex="1" parent="1">
          <mxGeometry x="390" y="50.5" width="19" height="19" as="geometry" />
        </mxCell>
        <mxCell id="yZPRah-BHQVT8apipLpk-30" value="" style="shape=image;html=1;verticalAlign=top;verticalLabelPosition=bottom;labelBackgroundColor=#ffffff;imageAspect=0;aspect=fixed;image=https://cdn4.iconfinder.com/data/icons/essential-app-2/16/record-round-circle-dot-128.png" vertex="1" parent="1">
          <mxGeometry x="390" y="90.5" width="19" height="19" as="geometry" />
        </mxCell>
        <mxCell id="yZPRah-BHQVT8apipLpk-31" value="" style="shape=image;html=1;verticalAlign=top;verticalLabelPosition=bottom;labelBackgroundColor=#ffffff;imageAspect=0;aspect=fixed;image=https://cdn4.iconfinder.com/data/icons/essential-app-2/16/record-round-circle-dot-128.png" vertex="1" parent="1">
          <mxGeometry x="390" y="130.5" width="19" height="19" as="geometry" />
        </mxCell>
        <mxCell id="yZPRah-BHQVT8apipLpk-32" value="" style="endArrow=classic;html=1;rounded=0;entryX=0;entryY=0.5;entryDx=0;entryDy=0;exitX=1;exitY=0.5;exitDx=0;exitDy=0;" edge="1" parent="1">
          <mxGeometry width="50" height="50" relative="1" as="geometry">
            <mxPoint x="249" y="19.5" as="sourcePoint" />
            <mxPoint x="310" y="19.5" as="targetPoint" />
          </mxGeometry>
        </mxCell>
        <mxCell id="yZPRah-BHQVT8apipLpk-33" value="" style="endArrow=classic;html=1;rounded=0;entryX=0;entryY=0.5;entryDx=0;entryDy=0;exitX=1;exitY=0.5;exitDx=0;exitDy=0;" edge="1" parent="1">
          <mxGeometry width="50" height="50" relative="1" as="geometry">
            <mxPoint x="329" y="19.5" as="sourcePoint" />
            <mxPoint x="390" y="19.5" as="targetPoint" />
          </mxGeometry>
        </mxCell>
        <mxCell id="yZPRah-BHQVT8apipLpk-34" value="" style="endArrow=classic;html=1;rounded=0;entryX=0;entryY=0.25;entryDx=0;entryDy=0;curved=0;" edge="1" parent="1" target="yZPRah-BHQVT8apipLpk-25">
          <mxGeometry width="50" height="50" relative="1" as="geometry">
            <mxPoint x="244" y="20" as="sourcePoint" />
            <mxPoint x="310" y="60" as="targetPoint" />
          </mxGeometry>
        </mxCell>
        <mxCell id="yZPRah-BHQVT8apipLpk-35" value="" style="endArrow=classic;html=1;rounded=0;entryX=0;entryY=0.25;entryDx=0;entryDy=0;curved=0;" edge="1" parent="1" target="yZPRah-BHQVT8apipLpk-29">
          <mxGeometry width="50" height="50" relative="1" as="geometry">
            <mxPoint x="324" y="20" as="sourcePoint" />
            <mxPoint x="390" y="60" as="targetPoint" />
          </mxGeometry>
        </mxCell>
        <mxCell id="yZPRah-BHQVT8apipLpk-36" value="" style="endArrow=classic;html=1;rounded=0;entryX=0;entryY=0.25;entryDx=0;entryDy=0;exitX=0.884;exitY=0.384;exitDx=0;exitDy=0;exitPerimeter=0;" edge="1" parent="1" source="yZPRah-BHQVT8apipLpk-16">
          <mxGeometry width="50" height="50" relative="1" as="geometry">
            <mxPoint x="250" y="50" as="sourcePoint" />
            <mxPoint x="311" y="95" as="targetPoint" />
          </mxGeometry>
        </mxCell>
        <mxCell id="yZPRah-BHQVT8apipLpk-38" value="" style="endArrow=classic;html=1;rounded=0;entryX=0;entryY=0.25;entryDx=0;entryDy=0;" edge="1" parent="1">
          <mxGeometry width="50" height="50" relative="1" as="geometry">
            <mxPoint x="329" y="60" as="sourcePoint" />
            <mxPoint x="390" y="95" as="targetPoint" />
          </mxGeometry>
        </mxCell>
        <mxCell id="yZPRah-BHQVT8apipLpk-39" value="" style="endArrow=classic;html=1;rounded=0;entryX=0.099;entryY=0.17;entryDx=0;entryDy=0;exitX=0.884;exitY=0.7;exitDx=0;exitDy=0;exitPerimeter=0;entryPerimeter=0;" edge="1" parent="1" source="yZPRah-BHQVT8apipLpk-16" target="yZPRah-BHQVT8apipLpk-27">
          <mxGeometry width="50" height="50" relative="1" as="geometry">
            <mxPoint x="240" y="80" as="sourcePoint" />
            <mxPoint x="310" y="137.5" as="targetPoint" />
          </mxGeometry>
        </mxCell>
        <mxCell id="yZPRah-BHQVT8apipLpk-41" value="" style="endArrow=classic;html=1;rounded=0;exitX=0.884;exitY=0.742;exitDx=0;exitDy=0;exitPerimeter=0;entryX=0.087;entryY=0.096;entryDx=0;entryDy=0;entryPerimeter=0;" edge="1" parent="1" source="yZPRah-BHQVT8apipLpk-25" target="yZPRah-BHQVT8apipLpk-31">
          <mxGeometry width="50" height="50" relative="1" as="geometry">
            <mxPoint x="330" y="80" as="sourcePoint" />
            <mxPoint x="390" y="130" as="targetPoint" />
          </mxGeometry>
        </mxCell>
        <mxCell id="yZPRah-BHQVT8apipLpk-42" value="" style="endArrow=classic;html=1;rounded=0;entryX=0;entryY=0.75;entryDx=0;entryDy=0;exitX=0.75;exitY=0;exitDx=0;exitDy=0;" edge="1" parent="1" source="yZPRah-BHQVT8apipLpk-17" target="yZPRah-BHQVT8apipLpk-24">
          <mxGeometry width="50" height="50" relative="1" as="geometry">
            <mxPoint x="390" y="110" as="sourcePoint" />
            <mxPoint x="440" y="60" as="targetPoint" />
          </mxGeometry>
        </mxCell>
        <mxCell id="yZPRah-BHQVT8apipLpk-43" value="" style="endArrow=classic;html=1;rounded=0;entryX=0;entryY=0.75;entryDx=0;entryDy=0;exitX=0.75;exitY=0;exitDx=0;exitDy=0;" edge="1" parent="1" target="yZPRah-BHQVT8apipLpk-28">
          <mxGeometry width="50" height="50" relative="1" as="geometry">
            <mxPoint x="324" y="93" as="sourcePoint" />
            <mxPoint x="390" y="27" as="targetPoint" />
          </mxGeometry>
        </mxCell>
        <mxCell id="yZPRah-BHQVT8apipLpk-44" value="" style="endArrow=classic;html=1;rounded=0;entryX=0;entryY=0.75;entryDx=0;entryDy=0;exitX=1;exitY=0.25;exitDx=0;exitDy=0;" edge="1" parent="1" source="yZPRah-BHQVT8apipLpk-18" target="yZPRah-BHQVT8apipLpk-26">
          <mxGeometry width="50" height="50" relative="1" as="geometry">
            <mxPoint x="390" y="110" as="sourcePoint" />
            <mxPoint x="440" y="60" as="targetPoint" />
          </mxGeometry>
        </mxCell>
        <mxCell id="yZPRah-BHQVT8apipLpk-45" value="" style="endArrow=classic;html=1;rounded=0;entryX=0;entryY=0.75;entryDx=0;entryDy=0;exitX=1;exitY=0.25;exitDx=0;exitDy=0;" edge="1" parent="1" source="yZPRah-BHQVT8apipLpk-27">
          <mxGeometry width="50" height="50" relative="1" as="geometry">
            <mxPoint x="329" y="130.5" as="sourcePoint" />
            <mxPoint x="390" y="100.5" as="targetPoint" />
          </mxGeometry>
        </mxCell>
        <mxCell id="yZPRah-BHQVT8apipLpk-46" value="" style="endArrow=classic;html=1;rounded=0;entryX=0;entryY=0.5;entryDx=0;entryDy=0;exitX=1;exitY=0.5;exitDx=0;exitDy=0;" edge="1" parent="1">
          <mxGeometry width="50" height="50" relative="1" as="geometry">
            <mxPoint x="249" y="139.5" as="sourcePoint" />
            <mxPoint x="310" y="139.5" as="targetPoint" />
          </mxGeometry>
        </mxCell>
        <mxCell id="yZPRah-BHQVT8apipLpk-47" value="" style="endArrow=classic;html=1;rounded=0;entryX=0;entryY=0.5;entryDx=0;entryDy=0;exitX=1;exitY=0.5;exitDx=0;exitDy=0;" edge="1" parent="1">
          <mxGeometry width="50" height="50" relative="1" as="geometry">
            <mxPoint x="329" y="139.5" as="sourcePoint" />
            <mxPoint x="390" y="139.5" as="targetPoint" />
          </mxGeometry>
        </mxCell>
        <mxCell id="yZPRah-BHQVT8apipLpk-48" value="" style="endArrow=classic;html=1;rounded=0;entryX=0;entryY=0.75;entryDx=0;entryDy=0;exitX=1;exitY=0.25;exitDx=0;exitDy=0;" edge="1" parent="1" target="yZPRah-BHQVT8apipLpk-25">
          <mxGeometry width="50" height="50" relative="1" as="geometry">
            <mxPoint x="249" y="94.5" as="sourcePoint" />
            <mxPoint x="310" y="60" as="targetPoint" />
          </mxGeometry>
        </mxCell>
        <mxCell id="yZPRah-BHQVT8apipLpk-49" value="" style="endArrow=classic;html=1;rounded=0;entryX=0;entryY=0.75;entryDx=0;entryDy=0;exitX=1;exitY=0.25;exitDx=0;exitDy=0;" edge="1" parent="1" target="yZPRah-BHQVT8apipLpk-29">
          <mxGeometry width="50" height="50" relative="1" as="geometry">
            <mxPoint x="329" y="94.5" as="sourcePoint" />
            <mxPoint x="390" y="60" as="targetPoint" />
          </mxGeometry>
        </mxCell>
        <mxCell id="yZPRah-BHQVT8apipLpk-52" value="00" style="text;html=1;align=center;verticalAlign=middle;whiteSpace=wrap;rounded=0;" vertex="1" parent="1">
          <mxGeometry x="80" y="-20" width="80" height="40" as="geometry" />
        </mxCell>
        <mxCell id="yZPRah-BHQVT8apipLpk-53" value="00" style="text;html=1;align=center;verticalAlign=middle;whiteSpace=wrap;rounded=0;" vertex="1" parent="1">
          <mxGeometry x="160" y="-20" width="80" height="40" as="geometry" />
        </mxCell>
        <mxCell id="yZPRah-BHQVT8apipLpk-54" value="00" style="text;html=1;align=center;verticalAlign=middle;whiteSpace=wrap;rounded=0;" vertex="1" parent="1">
          <mxGeometry x="240" y="-20" width="80" height="40" as="geometry" />
        </mxCell>
        <mxCell id="yZPRah-BHQVT8apipLpk-55" value="00" style="text;html=1;align=center;verticalAlign=middle;whiteSpace=wrap;rounded=0;" vertex="1" parent="1">
          <mxGeometry x="320" y="-20" width="80" height="40" as="geometry" />
        </mxCell>
        <mxCell id="yZPRah-BHQVT8apipLpk-56" value="10" style="text;html=1;align=center;verticalAlign=middle;whiteSpace=wrap;rounded=0;" vertex="1" parent="1">
          <mxGeometry x="110" y="24.75" width="20" height="10" as="geometry" />
        </mxCell>
        <mxCell id="yZPRah-BHQVT8apipLpk-58" value="10" style="text;html=1;align=center;verticalAlign=middle;whiteSpace=wrap;rounded=0;" vertex="1" parent="1">
          <mxGeometry x="190" y="24.75" width="20" height="10" as="geometry" />
        </mxCell>
        <mxCell id="yZPRah-BHQVT8apipLpk-59" value="10" style="text;html=1;align=center;verticalAlign=middle;whiteSpace=wrap;rounded=0;" vertex="1" parent="1">
          <mxGeometry x="270" y="20" width="30" height="19.5" as="geometry" />
        </mxCell>
        <mxCell id="yZPRah-BHQVT8apipLpk-60" value="10" style="text;html=1;align=center;verticalAlign=middle;whiteSpace=wrap;rounded=0;" vertex="1" parent="1">
          <mxGeometry x="350" y="20" width="20" height="19.5" as="geometry" />
        </mxCell>
        <mxCell id="yZPRah-BHQVT8apipLpk-61" value="01" style="text;html=1;align=center;verticalAlign=middle;whiteSpace=wrap;rounded=0;" vertex="1" parent="1">
          <mxGeometry x="260" y="40.5" width="30" height="19.5" as="geometry" />
        </mxCell>
        <mxCell id="yZPRah-BHQVT8apipLpk-62" value="01" style="text;html=1;align=center;verticalAlign=middle;whiteSpace=wrap;rounded=0;" vertex="1" parent="1">
          <mxGeometry x="340" y="40.5" width="30" height="19.5" as="geometry" />
        </mxCell>
      </root>
    </mxGraphModel>
  </diagram>
</mxfile>
